<svg width="47" height="34" viewBox="0 0 47 34" fill="none" xmlns="http://www.w3.org/2000/svg">
<path d="M17.9688 13.0938C17.9688 12.4721 18.2157 11.876 18.6552 11.4365C19.0948 10.9969 19.6909 10.75 20.3125 10.75H34.375C34.9966 10.75 35.5927 10.9969 36.0323 11.4365C36.4718 11.876 36.7188 12.4721 36.7188 13.0938C36.7188 13.7154 36.4718 14.3115 36.0323 14.751C35.5927 15.1906 34.9966 15.4375 34.375 15.4375H20.3125C19.6909 15.4375 19.0948 15.1906 18.6552 14.751C18.2157 14.3115 17.9688 13.7154 17.9688 13.0938ZM20.3125 23.25H34.375C34.9966 23.25 35.5927 23.0031 36.0323 22.5635C36.4718 22.124 36.7188 21.5279 36.7188 20.9062C36.7188 20.2846 36.4718 19.6885 36.0323 19.249C35.5927 18.8094 34.9966 18.5625 34.375 18.5625H20.3125C19.6909 18.5625 19.0948 18.8094 18.6552 19.249C18.2157 19.6885 17.9688 20.2846 17.9688 20.9062C17.9688 21.5279 18.2157 22.124 18.6552 22.5635C19.0948 23.0031 19.6909 23.25 20.3125 23.25ZM46.0938 4.5V27.9375C46.0938 28.6557 45.9523 29.3668 45.6775 30.0303C45.4026 30.6938 44.9998 31.2967 44.492 31.8045C43.9842 32.3123 43.3813 32.7151 42.7178 32.99C42.0543 33.2648 41.3432 33.4062 40.625 33.4062H7.03125C5.37365 33.4062 3.78394 32.7478 2.61183 31.5757C1.43973 30.4036 0.78125 28.8139 0.78125 27.1562V9.1875C0.78125 8.5659 1.02818 7.96976 1.46772 7.53022C1.90726 7.09068 2.5034 6.84375 3.125 6.84375C3.7466 6.84375 4.34274 7.09068 4.78228 7.53022C5.22182 7.96976 5.46875 8.5659 5.46875 9.1875V27.1562C5.46875 27.5707 5.63337 27.9681 5.9264 28.2611C6.21942 28.5541 6.61685 28.7188 7.03125 28.7188C7.44565 28.7188 7.84308 28.5541 8.1361 28.2611C8.42913 27.9681 8.59375 27.5707 8.59375 27.1562V4.5C8.59375 3.464 9.0053 2.47043 9.73786 1.73786C10.4704 1.0053 11.464 0.59375 12.5 0.59375H42.1875C43.2235 0.59375 44.2171 1.0053 44.9496 1.73786C45.6822 2.47043 46.0938 3.464 46.0938 4.5ZM41.4062 5.28125H13.2812V27.1562C13.2823 27.6832 13.2167 28.2082 13.0859 28.7188H40.625C40.8322 28.7188 41.0309 28.6364 41.1774 28.4899C41.3239 28.3434 41.4062 28.1447 41.4062 27.9375V5.28125Z" fill="white"/>
</svg>
