<svg width="44" height="44" viewBox="0 0 44 44" fill="none" xmlns="http://www.w3.org/2000/svg">
<path d="M14.7273 14.7273H29.2727M14.7273 22H29.2727M14.7273 29.2727H22M41.8409 29.2727H29.2727V41.8409M28.5227 42H3.81818C3.33597 42 2.87351 41.8084 2.53253 41.4675C2.19156 41.1265 2 40.664 2 40.1818V3.81818C2 3.33597 2.19156 2.87351 2.53253 2.53253C2.87351 2.19156 3.33597 2 3.81818 2H40.1818C40.664 2 41.1265 2.19156 41.4675 2.53253C41.8084 2.87351 42 3.33597 42 3.81818V28.5227C42.0008 28.7588 41.9551 28.9928 41.8654 29.2111C41.7757 29.4295 41.6438 29.6281 41.4773 29.7954L29.7954 41.4773C29.6281 41.6438 29.4295 41.7757 29.2111 41.8654C28.9928 41.9551 28.7588 42.0008 28.5227 42Z" stroke="white" stroke-width="3" stroke-linecap="round" stroke-linejoin="round"/>
</svg>
