<svg width="60" height="60" viewBox="0 0 60 60" fill="none" xmlns="http://www.w3.org/2000/svg">
<path d="M48.75 7.5H11.25C10.2554 7.5 9.30161 7.89509 8.59835 8.59835C7.89509 9.30161 7.5 10.2554 7.5 11.25V48.75C7.5 49.7446 7.89509 50.6984 8.59835 51.4016C9.30161 52.1049 10.2554 52.5 11.25 52.5H48.75C49.7446 52.5 50.6984 52.1049 51.4016 51.4016C52.1049 50.6984 52.5 49.7446 52.5 48.75V11.25C52.5 10.2554 52.1049 9.30161 51.4016 8.59835C50.6984 7.89509 49.7446 7.5 48.75 7.5ZM18.75 48.75H11.25V11.25H18.75V48.75ZM41.25 35.625H26.25C25.7527 35.625 25.2758 35.4275 24.9242 35.0758C24.5725 34.7242 24.375 34.2473 24.375 33.75C24.375 33.2527 24.5725 32.7758 24.9242 32.4242C25.2758 32.0725 25.7527 31.875 26.25 31.875H41.25C41.7473 31.875 42.2242 32.0725 42.5758 32.4242C42.9275 32.7758 43.125 33.2527 43.125 33.75C43.125 34.2473 42.9275 34.7242 42.5758 35.0758C42.2242 35.4275 41.7473 35.625 41.25 35.625ZM41.25 28.125H26.25C25.7527 28.125 25.2758 27.9275 24.9242 27.5758C24.5725 27.2242 24.375 26.7473 24.375 26.25C24.375 25.7527 24.5725 25.2758 24.9242 24.9242C25.2758 24.5725 25.7527 24.375 26.25 24.375H41.25C41.7473 24.375 42.2242 24.5725 42.5758 24.9242C42.9275 25.2758 43.125 25.7527 43.125 26.25C43.125 26.7473 42.9275 27.2242 42.5758 27.5758C42.2242 27.9275 41.7473 28.125 41.25 28.125Z" fill="white"/>
</svg>
