<svg width="52" height="52" viewBox="0 0 52 52" fill="none" xmlns="http://www.w3.org/2000/svg">
<path d="M36.4219 23.625C36.4219 25.7666 35.7868 27.8601 34.597 29.6408C33.4072 31.4215 31.7161 32.8093 29.7375 33.6289C27.7589 34.4484 25.5817 34.6629 23.4813 34.2451C21.3808 33.8273 19.4515 32.796 17.9371 31.2816C16.4228 29.7673 15.3915 27.8379 14.9737 25.7375C14.5559 23.637 14.7703 21.4598 15.5899 19.4813C16.4094 17.5027 17.7973 15.8116 19.578 14.6217C21.3587 13.4319 23.4522 12.7969 25.5938 12.7969C28.4646 12.8001 31.2168 13.942 33.2468 15.972C35.2768 18.0019 36.4186 20.7542 36.4219 23.625ZM51.1875 25.5938C51.1875 30.6557 49.6865 35.604 46.8742 39.8129C44.0619 44.0217 40.0647 47.3022 35.3881 49.2393C30.7114 51.1764 25.5654 51.6833 20.6007 50.6957C15.636 49.7082 11.0756 47.2706 7.49625 43.6913C3.9169 40.1119 1.47933 35.5515 0.491788 30.5868C-0.495752 25.6221 0.0110894 20.4761 1.94822 15.7994C3.88535 11.1228 7.16576 7.1256 11.3746 4.31332C15.5835 1.50105 20.5318 0 25.5938 0C32.3794 0.0071658 38.8852 2.70594 43.6834 7.50415C48.4816 12.3024 51.1803 18.8081 51.1875 25.5938ZM47.25 25.5938C47.2469 22.6789 46.6559 19.7945 45.5125 17.1133C44.369 14.432 42.6966 12.0089 40.5952 9.98878C38.4938 7.9687 36.0065 6.39316 33.2823 5.35638C30.558 4.3196 27.6526 3.84288 24.7398 3.95473C13.1488 4.40262 3.90552 14.0569 3.93751 25.6553C3.94863 30.9353 5.89598 36.0278 9.41064 39.9681C10.842 37.8921 12.6602 36.1115 14.7656 34.7238C14.9451 34.6053 15.1586 34.5488 15.3732 34.563C15.5879 34.5772 15.792 34.6614 15.9543 34.8026C18.6297 37.1167 22.0489 38.3903 25.5864 38.3903C29.1238 38.3903 32.543 37.1167 35.2185 34.8026C35.3808 34.6614 35.5849 34.5772 35.7995 34.563C36.0142 34.5488 36.2276 34.6053 36.4071 34.7238C38.5153 36.1107 40.336 37.8914 41.7695 39.9681C45.3015 36.0134 47.2526 30.8961 47.25 25.5938Z" fill="white"/>
</svg>
